<svg xmlns="http://www.w3.org/2000/svg" width="297" height="147" viewBox="0 0 297 147" role="img" aria-label="Total blocks: 10">
<title>Total blocks: 10</title>
<rect x="0" y="0" width="12" height="12" rx="2" ry="2" fill="#2ea043"/><rect x="15" y="0" width="12" height="12" rx="2" ry="2" fill="#2ea043"/><rect x="30" y="0" width="12" height="12" rx="2" ry="2" fill="#2ea043"/><rect x="45" y="0" width="12" height="12" rx="2" ry="2" fill="#2ea043"/><rect x="60" y="0" width="12" height="12" rx="2" ry="2" fill="#2ea043"/><rect x="75" y="0" width="12" height="12" rx="2" ry="2" fill="#2ea043"/><rect x="90" y="0" width="12" height="12" rx="2" ry="2" fill="#2ea043"/><rect x="105" y="0" width="12" height="12" rx="2" ry="2" fill="#2ea043"/><rect x="120" y="0" width="12" height="12" rx="2" ry="2" fill="#2ea043"/><rect x="135" y="0" width="12" height="12" rx="2" ry="2" fill="#2ea043"/><rect x="150" y="0" width="12" height="12" rx="2" ry="2" fill="#e5e7eb"/><rect x="165" y="0" width="12" height="12" rx="2" ry="2" fill="#e5e7eb"/><rect x="180" y="0" width="12" height="12" rx="2" ry="2" fill="#e5e7eb"/><rect x="195" y="0" width="12" height="12" rx="2" ry="2" fill="#e5e7eb"/><rect x="210" y="0" width="12" height="12" rx="2" ry="2" fill="#e5e7eb"/><rect x="225" y="0" width="12" height="12" rx="2" ry="2" fill="#e5e7eb"/><rect x="240" y="0" width="12" height="12" rx="2" ry="2" fill="#e5e7eb"/><rect x="255" y="0" width="12" height="12" rx="2" ry="2" fill="#e5e7eb"/><rect x="270" y="0" width="12" height="12" rx="2" ry="2" fill="#e5e7eb"/><rect x="285" y="0" width="12" height="12" rx="2" ry="2" fill="#e5e7eb"/><rect x="0" y="15" width="12" height="12" rx="2" ry="2" fill="#e5e7eb"/><rect x="15" y="15" width="12" height="12" rx="2" ry="2" fill="#e5e7eb"/><rect x="30" y="15" width="12" height="12" rx="2" ry="2" fill="#e5e7eb"/><rect x="45" y="15" width="12" height="12" rx="2" ry="2" fill="#e5e7eb"/><rect x="60" y="15" width="12" height="12" rx="2" ry="2" fill="#e5e7eb"/><rect x="75" y="15" width="12" height="12" rx="2" ry="2" fill="#e5e7eb"/><rect x="90" y="15" width="12" height="12" rx="2" ry="2" fill="#e5e7eb"/><rect x="105" y="15" width="12" height="12" rx="2" ry="2" fill="#e5e7eb"/><rect x="120" y="15" width="12" height="12" rx="2" ry="2" fill="#e5e7eb"/><rect x="135" y="15" width="12" height="12" rx="2" ry="2" fill="#e5e7eb"/><rect x="150" y="15" width="12" height="12" rx="2" ry="2" fill="#e5e7eb"/><rect x="165" y="15" width="12" height="12" rx="2" ry="2" fill="#e5e7eb"/><rect x="180" y="15" width="12" height="12" rx="2" ry="2" fill="#e5e7eb"/><rect x="195" y="15" width="12" height="12" rx="2" ry="2" fill="#e5e7eb"/><rect x="210" y="15" width="12" height="12" rx="2" ry="2" fill="#e5e7eb"/><rect x="225" y="15" width="12" height="12" rx="2" ry="2" fill="#e5e7eb"/><rect x="240" y="15" width="12" height="12" rx="2" ry="2" fill="#e5e7eb"/><rect x="255" y="15" width="12" height="12" rx="2" ry="2" fill="#e5e7eb"/><rect x="270" y="15" width="12" height="12" rx="2" ry="2" fill="#e5e7eb"/><rect x="285" y="15" width="12" height="12" rx="2" ry="2" fill="#e5e7eb"/><rect x="0" y="30" width="12" height="12" rx="2" ry="2" fill="#e5e7eb"/><rect x="15" y="30" width="12" height="12" rx="2" ry="2" fill="#e5e7eb"/><rect x="30" y="30" width="12" height="12" rx="2" ry="2" fill="#e5e7eb"/><rect x="45" y="30" width="12" height="12" rx="2" ry="2" fill="#e5e7eb"/><rect x="60" y="30" width="12" height="12" rx="2" ry="2" fill="#e5e7eb"/><rect x="75" y="30" width="12" height="12" rx="2" ry="2" fill="#e5e7eb"/><rect x="90" y="30" width="12" height="12" rx="2" ry="2" fill="#e5e7eb"/><rect x="105" y="30" width="12" height="12" rx="2" ry="2" fill="#e5e7eb"/><rect x="120" y="30" width="12" height="12" rx="2" ry="2" fill="#e5e7eb"/><rect x="135" y="30" width="12" height="12" rx="2" ry="2" fill="#e5e7eb"/><rect x="150" y="30" width="12" height="12" rx="2" ry="2" fill="#e5e7eb"/><rect x="165" y="30" width="12" height="12" rx="2" ry="2" fill="#e5e7eb"/><rect x="180" y="30" width="12" height="12" rx="2" ry="2" fill="#e5e7eb"/><rect x="195" y="30" width="12" height="12" rx="2" ry="2" fill="#e5e7eb"/><rect x="210" y="30" width="12" height="12" rx="2" ry="2" fill="#e5e7eb"/><rect x="225" y="30" width="12" height="12" rx="2" ry="2" fill="#e5e7eb"/><rect x="240" y="30" width="12" height="12" rx="2" ry="2" fill="#e5e7eb"/><rect x="255" y="30" width="12" height="12" rx="2" ry="2" fill="#e5e7eb"/><rect x="270" y="30" width="12" height="12" rx="2" ry="2" fill="#e5e7eb"/><rect x="285" y="30" width="12" height="12" rx="2" ry="2" fill="#e5e7eb"/><rect x="0" y="45" width="12" height="12" rx="2" ry="2" fill="#e5e7eb"/><rect x="15" y="45" width="12" height="12" rx="2" ry="2" fill="#e5e7eb"/><rect x="30" y="45" width="12" height="12" rx="2" ry="2" fill="#e5e7eb"/><rect x="45" y="45" width="12" height="12" rx="2" ry="2" fill="#e5e7eb"/><rect x="60" y="45" width="12" height="12" rx="2" ry="2" fill="#e5e7eb"/><rect x="75" y="45" width="12" height="12" rx="2" ry="2" fill="#e5e7eb"/><rect x="90" y="45" width="12" height="12" rx="2" ry="2" fill="#e5e7eb"/><rect x="105" y="45" width="12" height="12" rx="2" ry="2" fill="#e5e7eb"/><rect x="120" y="45" width="12" height="12" rx="2" ry="2" fill="#e5e7eb"/><rect x="135" y="45" width="12" height="12" rx="2" ry="2" fill="#e5e7eb"/><rect x="150" y="45" width="12" height="12" rx="2" ry="2" fill="#e5e7eb"/><rect x="165" y="45" width="12" height="12" rx="2" ry="2" fill="#e5e7eb"/><rect x="180" y="45" width="12" height="12" rx="2" ry="2" fill="#e5e7eb"/><rect x="195" y="45" width="12" height="12" rx="2" ry="2" fill="#e5e7eb"/><rect x="210" y="45" width="12" height="12" rx="2" ry="2" fill="#e5e7eb"/><rect x="225" y="45" width="12" height="12" rx="2" ry="2" fill="#e5e7eb"/><rect x="240" y="45" width="12" height="12" rx="2" ry="2" fill="#e5e7eb"/><rect x="255" y="45" width="12" height="12" rx="2" ry="2" fill="#e5e7eb"/><rect x="270" y="45" width="12" height="12" rx="2" ry="2" fill="#e5e7eb"/><rect x="285" y="45" width="12" height="12" rx="2" ry="2" fill="#e5e7eb"/><rect x="0" y="60" width="12" height="12" rx="2" ry="2" fill="#e5e7eb"/><rect x="15" y="60" width="12" height="12" rx="2" ry="2" fill="#e5e7eb"/><rect x="30" y="60" width="12" height="12" rx="2" ry="2" fill="#e5e7eb"/><rect x="45" y="60" width="12" height="12" rx="2" ry="2" fill="#e5e7eb"/><rect x="60" y="60" width="12" height="12" rx="2" ry="2" fill="#e5e7eb"/><rect x="75" y="60" width="12" height="12" rx="2" ry="2" fill="#e5e7eb"/><rect x="90" y="60" width="12" height="12" rx="2" ry="2" fill="#e5e7eb"/><rect x="105" y="60" width="12" height="12" rx="2" ry="2" fill="#e5e7eb"/><rect x="120" y="60" width="12" height="12" rx="2" ry="2" fill="#e5e7eb"/><rect x="135" y="60" width="12" height="12" rx="2" ry="2" fill="#e5e7eb"/><rect x="150" y="60" width="12" height="12" rx="2" ry="2" fill="#e5e7eb"/><rect x="165" y="60" width="12" height="12" rx="2" ry="2" fill="#e5e7eb"/><rect x="180" y="60" width="12" height="12" rx="2" ry="2" fill="#e5e7eb"/><rect x="195" y="60" width="12" height="12" rx="2" ry="2" fill="#e5e7eb"/><rect x="210" y="60" width="12" height="12" rx="2" ry="2" fill="#e5e7eb"/><rect x="225" y="60" width="12" height="12" rx="2" ry="2" fill="#e5e7eb"/><rect x="240" y="60" width="12" height="12" rx="2" ry="2" fill="#e5e7eb"/><rect x="255" y="60" width="12" height="12" rx="2" ry="2" fill="#e5e7eb"/><rect x="270" y="60" width="12" height="12" rx="2" ry="2" fill="#e5e7eb"/><rect x="285" y="60" width="12" height="12" rx="2" ry="2" fill="#e5e7eb"/><rect x="0" y="75" width="12" height="12" rx="2" ry="2" fill="#e5e7eb"/><rect x="15" y="75" width="12" height="12" rx="2" ry="2" fill="#e5e7eb"/><rect x="30" y="75" width="12" height="12" rx="2" ry="2" fill="#e5e7eb"/><rect x="45" y="75" width="12" height="12" rx="2" ry="2" fill="#e5e7eb"/><rect x="60" y="75" width="12" height="12" rx="2" ry="2" fill="#e5e7eb"/><rect x="75" y="75" width="12" height="12" rx="2" ry="2" fill="#e5e7eb"/><rect x="90" y="75" width="12" height="12" rx="2" ry="2" fill="#e5e7eb"/><rect x="105" y="75" width="12" height="12" rx="2" ry="2" fill="#e5e7eb"/><rect x="120" y="75" width="12" height="12" rx="2" ry="2" fill="#e5e7eb"/><rect x="135" y="75" width="12" height="12" rx="2" ry="2" fill="#e5e7eb"/><rect x="150" y="75" width="12" height="12" rx="2" ry="2" fill="#e5e7eb"/><rect x="165" y="75" width="12" height="12" rx="2" ry="2" fill="#e5e7eb"/><rect x="180" y="75" width="12" height="12" rx="2" ry="2" fill="#e5e7eb"/><rect x="195" y="75" width="12" height="12" rx="2" ry="2" fill="#e5e7eb"/><rect x="210" y="75" width="12" height="12" rx="2" ry="2" fill="#e5e7eb"/><rect x="225" y="75" width="12" height="12" rx="2" ry="2" fill="#e5e7eb"/><rect x="240" y="75" width="12" height="12" rx="2" ry="2" fill="#e5e7eb"/><rect x="255" y="75" width="12" height="12" rx="2" ry="2" fill="#e5e7eb"/><rect x="270" y="75" width="12" height="12" rx="2" ry="2" fill="#e5e7eb"/><rect x="285" y="75" width="12" height="12" rx="2" ry="2" fill="#e5e7eb"/><rect x="0" y="90" width="12" height="12" rx="2" ry="2" fill="#e5e7eb"/><rect x="15" y="90" width="12" height="12" rx="2" ry="2" fill="#e5e7eb"/><rect x="30" y="90" width="12" height="12" rx="2" ry="2" fill="#e5e7eb"/><rect x="45" y="90" width="12" height="12" rx="2" ry="2" fill="#e5e7eb"/><rect x="60" y="90" width="12" height="12" rx="2" ry="2" fill="#e5e7eb"/><rect x="75" y="90" width="12" height="12" rx="2" ry="2" fill="#e5e7eb"/><rect x="90" y="90" width="12" height="12" rx="2" ry="2" fill="#e5e7eb"/><rect x="105" y="90" width="12" height="12" rx="2" ry="2" fill="#e5e7eb"/><rect x="120" y="90" width="12" height="12" rx="2" ry="2" fill="#e5e7eb"/><rect x="135" y="90" width="12" height="12" rx="2" ry="2" fill="#e5e7eb"/><rect x="150" y="90" width="12" height="12" rx="2" ry="2" fill="#e5e7eb"/><rect x="165" y="90" width="12" height="12" rx="2" ry="2" fill="#e5e7eb"/><rect x="180" y="90" width="12" height="12" rx="2" ry="2" fill="#e5e7eb"/><rect x="195" y="90" width="12" height="12" rx="2" ry="2" fill="#e5e7eb"/><rect x="210" y="90" width="12" height="12" rx="2" ry="2" fill="#e5e7eb"/><rect x="225" y="90" width="12" height="12" rx="2" ry="2" fill="#e5e7eb"/><rect x="240" y="90" width="12" height="12" rx="2" ry="2" fill="#e5e7eb"/><rect x="255" y="90" width="12" height="12" rx="2" ry="2" fill="#e5e7eb"/><rect x="270" y="90" width="12" height="12" rx="2" ry="2" fill="#e5e7eb"/><rect x="285" y="90" width="12" height="12" rx="2" ry="2" fill="#e5e7eb"/><rect x="0" y="105" width="12" height="12" rx="2" ry="2" fill="#e5e7eb"/><rect x="15" y="105" width="12" height="12" rx="2" ry="2" fill="#e5e7eb"/><rect x="30" y="105" width="12" height="12" rx="2" ry="2" fill="#e5e7eb"/><rect x="45" y="105" width="12" height="12" rx="2" ry="2" fill="#e5e7eb"/><rect x="60" y="105" width="12" height="12" rx="2" ry="2" fill="#e5e7eb"/><rect x="75" y="105" width="12" height="12" rx="2" ry="2" fill="#e5e7eb"/><rect x="90" y="105" width="12" height="12" rx="2" ry="2" fill="#e5e7eb"/><rect x="105" y="105" width="12" height="12" rx="2" ry="2" fill="#e5e7eb"/><rect x="120" y="105" width="12" height="12" rx="2" ry="2" fill="#e5e7eb"/><rect x="135" y="105" width="12" height="12" rx="2" ry="2" fill="#e5e7eb"/><rect x="150" y="105" width="12" height="12" rx="2" ry="2" fill="#e5e7eb"/><rect x="165" y="105" width="12" height="12" rx="2" ry="2" fill="#e5e7eb"/><rect x="180" y="105" width="12" height="12" rx="2" ry="2" fill="#e5e7eb"/><rect x="195" y="105" width="12" height="12" rx="2" ry="2" fill="#e5e7eb"/><rect x="210" y="105" width="12" height="12" rx="2" ry="2" fill="#e5e7eb"/><rect x="225" y="105" width="12" height="12" rx="2" ry="2" fill="#e5e7eb"/><rect x="240" y="105" width="12" height="12" rx="2" ry="2" fill="#e5e7eb"/><rect x="255" y="105" width="12" height="12" rx="2" ry="2" fill="#e5e7eb"/><rect x="270" y="105" width="12" height="12" rx="2" ry="2" fill="#e5e7eb"/><rect x="285" y="105" width="12" height="12" rx="2" ry="2" fill="#e5e7eb"/><rect x="0" y="120" width="12" height="12" rx="2" ry="2" fill="#e5e7eb"/><rect x="15" y="120" width="12" height="12" rx="2" ry="2" fill="#e5e7eb"/><rect x="30" y="120" width="12" height="12" rx="2" ry="2" fill="#e5e7eb"/><rect x="45" y="120" width="12" height="12" rx="2" ry="2" fill="#e5e7eb"/><rect x="60" y="120" width="12" height="12" rx="2" ry="2" fill="#e5e7eb"/><rect x="75" y="120" width="12" height="12" rx="2" ry="2" fill="#e5e7eb"/><rect x="90" y="120" width="12" height="12" rx="2" ry="2" fill="#e5e7eb"/><rect x="105" y="120" width="12" height="12" rx="2" ry="2" fill="#e5e7eb"/><rect x="120" y="120" width="12" height="12" rx="2" ry="2" fill="#e5e7eb"/><rect x="135" y="120" width="12" height="12" rx="2" ry="2" fill="#e5e7eb"/><rect x="150" y="120" width="12" height="12" rx="2" ry="2" fill="#e5e7eb"/><rect x="165" y="120" width="12" height="12" rx="2" ry="2" fill="#e5e7eb"/><rect x="180" y="120" width="12" height="12" rx="2" ry="2" fill="#e5e7eb"/><rect x="195" y="120" width="12" height="12" rx="2" ry="2" fill="#e5e7eb"/><rect x="210" y="120" width="12" height="12" rx="2" ry="2" fill="#e5e7eb"/><rect x="225" y="120" width="12" height="12" rx="2" ry="2" fill="#e5e7eb"/><rect x="240" y="120" width="12" height="12" rx="2" ry="2" fill="#e5e7eb"/><rect x="255" y="120" width="12" height="12" rx="2" ry="2" fill="#e5e7eb"/><rect x="270" y="120" width="12" height="12" rx="2" ry="2" fill="#e5e7eb"/><rect x="285" y="120" width="12" height="12" rx="2" ry="2" fill="#e5e7eb"/><rect x="0" y="135" width="12" height="12" rx="2" ry="2" fill="#e5e7eb"/><rect x="15" y="135" width="12" height="12" rx="2" ry="2" fill="#e5e7eb"/><rect x="30" y="135" width="12" height="12" rx="2" ry="2" fill="#e5e7eb"/><rect x="45" y="135" width="12" height="12" rx="2" ry="2" fill="#e5e7eb"/><rect x="60" y="135" width="12" height="12" rx="2" ry="2" fill="#e5e7eb"/><rect x="75" y="135" width="12" height="12" rx="2" ry="2" fill="#e5e7eb"/><rect x="90" y="135" width="12" height="12" rx="2" ry="2" fill="#e5e7eb"/><rect x="105" y="135" width="12" height="12" rx="2" ry="2" fill="#e5e7eb"/><rect x="120" y="135" width="12" height="12" rx="2" ry="2" fill="#e5e7eb"/><rect x="135" y="135" width="12" height="12" rx="2" ry="2" fill="#e5e7eb"/><rect x="150" y="135" width="12" height="12" rx="2" ry="2" fill="#e5e7eb"/><rect x="165" y="135" width="12" height="12" rx="2" ry="2" fill="#e5e7eb"/><rect x="180" y="135" width="12" height="12" rx="2" ry="2" fill="#e5e7eb"/><rect x="195" y="135" width="12" height="12" rx="2" ry="2" fill="#e5e7eb"/><rect x="210" y="135" width="12" height="12" rx="2" ry="2" fill="#e5e7eb"/><rect x="225" y="135" width="12" height="12" rx="2" ry="2" fill="#e5e7eb"/><rect x="240" y="135" width="12" height="12" rx="2" ry="2" fill="#e5e7eb"/><rect x="255" y="135" width="12" height="12" rx="2" ry="2" fill="#e5e7eb"/><rect x="270" y="135" width="12" height="12" rx="2" ry="2" fill="#e5e7eb"/><rect x="285" y="135" width="12" height="12" rx="2" ry="2" fill="#e5e7eb"/>
</svg>